<svg width="1026" height="947" viewBox="0 0 1026 947" fill="none" xmlns="http://www.w3.org/2000/svg">
<g opacity="0.7">
<path d="M79.16 763L93.544 721.24H99.199L113.583 763H109.146L95.487 723.618H97.169L83.597 763H79.16ZM85.569 752.879V748.877H107.145V752.879H85.569ZM119.4 763V721.24H123.663V763H119.4ZM131.777 743.947V740.293H149.177V743.947H131.777ZM156.712 763V721.24H172.836C173.242 721.24 173.697 721.259 174.199 721.298C174.721 721.317 175.243 721.375 175.765 721.472C177.95 721.801 179.796 722.564 181.304 723.763C182.832 724.942 183.982 726.431 184.755 728.229C185.548 730.027 185.944 732.018 185.944 734.203C185.944 736.368 185.548 738.35 184.755 740.148C183.963 741.946 182.803 743.444 181.275 744.643C179.767 745.822 177.931 746.576 175.765 746.905C175.243 746.982 174.721 747.04 174.199 747.079C173.697 747.118 173.242 747.137 172.836 747.137H160.975V763H156.712ZM160.975 743.077H172.72C173.068 743.077 173.474 743.058 173.938 743.019C174.402 742.98 174.857 742.913 175.301 742.816C176.732 742.507 177.902 741.917 178.81 741.047C179.738 740.177 180.425 739.143 180.869 737.944C181.333 736.745 181.565 735.498 181.565 734.203C181.565 732.908 181.333 731.661 180.869 730.462C180.425 729.244 179.738 728.2 178.81 727.33C177.902 726.46 176.732 725.87 175.301 725.561C174.857 725.464 174.402 725.406 173.938 725.387C173.474 725.348 173.068 725.329 172.72 725.329H160.975V743.077ZM204.625 763.87C201.513 763.87 198.854 763.164 196.65 761.753C194.446 760.342 192.755 758.389 191.575 755.895C190.396 753.401 189.806 750.54 189.806 747.311C189.806 744.024 190.406 741.144 191.604 738.669C192.803 736.194 194.504 734.271 196.708 732.898C198.932 731.506 201.571 730.81 204.625 730.81C207.757 730.81 210.425 731.516 212.629 732.927C214.853 734.319 216.544 736.262 217.704 738.756C218.884 741.231 219.473 744.082 219.473 747.311C219.473 750.598 218.884 753.488 217.704 755.982C216.525 758.457 214.824 760.39 212.6 761.782C210.377 763.174 207.719 763.87 204.625 763.87ZM204.625 759.781C208.105 759.781 210.696 758.631 212.397 756.33C214.099 754.01 214.949 751.004 214.949 747.311C214.949 743.522 214.089 740.506 212.368 738.263C210.667 736.02 208.086 734.899 204.625 734.899C202.286 734.899 200.353 735.431 198.825 736.494C197.317 737.538 196.186 738.998 195.432 740.873C194.698 742.729 194.33 744.875 194.33 747.311C194.33 751.081 195.2 754.107 196.94 756.388C198.68 758.65 201.242 759.781 204.625 759.781ZM231.408 763L221.838 731.651L226.101 731.68L233.525 756.011L240.978 731.68H244.864L252.317 756.011L259.799 731.68H264.033L254.463 763H250.751L242.921 738.06L235.12 763H231.408ZM281.377 763.87C278.323 763.87 275.674 763.193 273.431 761.84C271.208 760.487 269.478 758.582 268.24 756.127C267.003 753.672 266.384 750.791 266.384 747.485C266.384 744.063 266.993 741.105 268.211 738.611C269.429 736.117 271.14 734.193 273.344 732.84C275.568 731.487 278.187 730.81 281.203 730.81C284.297 730.81 286.936 731.525 289.12 732.956C291.305 734.367 292.958 736.397 294.079 739.046C295.201 741.695 295.713 744.856 295.616 748.529H291.266V747.021C291.189 742.961 290.309 739.897 288.627 737.828C286.965 735.759 284.529 734.725 281.319 734.725C277.955 734.725 275.374 735.817 273.576 738.002C271.798 740.187 270.908 743.299 270.908 747.34C270.908 751.284 271.798 754.348 273.576 756.533C275.374 758.698 277.917 759.781 281.203 759.781C283.446 759.781 285.399 759.269 287.061 758.244C288.743 757.2 290.068 755.702 291.034 753.749L295.007 755.286C293.77 758.012 291.943 760.129 289.526 761.637C287.129 763.126 284.413 763.87 281.377 763.87ZM269.4 748.529V744.962H293.325V748.529H269.4ZM302.052 763V731.68H305.88V739.22L305.126 738.234C305.474 737.306 305.929 736.455 306.489 735.682C307.05 734.889 307.659 734.242 308.316 733.739C309.128 733.024 310.076 732.482 311.158 732.115C312.241 731.728 313.333 731.506 314.435 731.448C315.537 731.371 316.543 731.448 317.451 731.68V735.682C316.311 735.392 315.064 735.324 313.71 735.479C312.357 735.634 311.11 736.175 309.969 737.103C308.925 737.915 308.142 738.891 307.62 740.032C307.098 741.153 306.75 742.352 306.576 743.628C306.402 744.885 306.315 746.132 306.315 747.369V763H302.052ZM335.639 763.87C332.585 763.87 329.936 763.193 327.693 761.84C325.47 760.487 323.74 758.582 322.502 756.127C321.265 753.672 320.646 750.791 320.646 747.485C320.646 744.063 321.255 741.105 322.473 738.611C323.691 736.117 325.402 734.193 327.606 732.84C329.83 731.487 332.449 730.81 335.465 730.81C338.559 730.81 341.198 731.525 343.382 732.956C345.567 734.367 347.22 736.397 348.341 739.046C349.463 741.695 349.975 744.856 349.878 748.529H345.528V747.021C345.451 742.961 344.571 739.897 342.889 737.828C341.227 735.759 338.791 734.725 335.581 734.725C332.217 734.725 329.636 735.817 327.838 738.002C326.06 740.187 325.17 743.299 325.17 747.34C325.17 751.284 326.06 754.348 327.838 756.533C329.636 758.698 332.179 759.781 335.465 759.781C337.708 759.781 339.661 759.269 341.323 758.244C343.005 757.2 344.33 755.702 345.296 753.749L349.269 755.286C348.032 758.012 346.205 760.129 343.788 761.637C341.391 763.126 338.675 763.87 335.639 763.87ZM323.662 748.529V744.962H347.587V748.529H323.662ZM368.465 763.87C365.546 763.87 363.052 763.145 360.983 761.695C358.914 760.226 357.329 758.244 356.227 755.75C355.125 753.256 354.574 750.443 354.574 747.311C354.574 744.198 355.115 741.395 356.198 738.901C357.3 736.407 358.876 734.435 360.925 732.985C362.974 731.535 365.43 730.81 368.291 730.81C371.23 730.81 373.704 731.525 375.715 732.956C377.726 734.387 379.243 736.349 380.268 738.843C381.312 741.318 381.834 744.14 381.834 747.311C381.834 750.424 381.322 753.237 380.297 755.75C379.272 758.244 377.764 760.226 375.773 761.695C373.782 763.145 371.346 763.87 368.465 763.87ZM368.9 759.897C371.123 759.897 372.96 759.356 374.41 758.273C375.86 757.19 376.943 755.702 377.658 753.807C378.373 751.893 378.731 749.728 378.731 747.311C378.731 744.856 378.373 742.69 377.658 740.815C376.943 738.92 375.86 737.441 374.41 736.378C372.979 735.315 371.172 734.783 368.987 734.783C366.744 734.783 364.888 735.334 363.419 736.436C361.95 737.538 360.857 739.036 360.142 740.931C359.446 742.826 359.098 744.952 359.098 747.311C359.098 749.689 359.456 751.835 360.171 753.749C360.906 755.644 361.998 757.142 363.448 758.244C364.898 759.346 366.715 759.897 368.9 759.897ZM378.731 763V739.423H378.267V721.24H382.559V763H378.731ZM399.406 763L413.79 721.24H419.445L433.829 763H429.392L415.733 723.618H417.415L403.843 763H399.406ZM405.815 752.879V748.877H427.391V752.879H405.815ZM451.043 763.783C449.168 763.783 447.524 763.493 446.113 762.913C444.721 762.333 443.532 761.55 442.546 760.564C441.579 759.578 440.796 758.457 440.197 757.2C439.598 755.924 439.163 754.58 438.892 753.169C438.621 751.738 438.486 750.317 438.486 748.906V731.68H442.778V747.659C442.778 749.38 442.942 750.975 443.271 752.444C443.6 753.913 444.122 755.199 444.837 756.301C445.572 757.384 446.509 758.225 447.65 758.824C448.81 759.423 450.212 759.723 451.855 759.723C453.363 759.723 454.687 759.462 455.828 758.94C456.988 758.418 457.955 757.674 458.728 756.707C459.521 755.721 460.12 754.532 460.526 753.14C460.932 751.729 461.135 750.143 461.135 748.384L464.151 749.051C464.151 752.26 463.59 754.957 462.469 757.142C461.348 759.327 459.801 760.98 457.829 762.101C455.857 763.222 453.595 763.783 451.043 763.783ZM461.57 763V755.286H461.135V731.68H465.398V763H461.57ZM490.555 763C488.796 763.367 487.056 763.512 485.335 763.435C483.634 763.358 482.107 762.99 480.753 762.333C479.419 761.676 478.404 760.651 477.708 759.259C477.148 758.099 476.838 756.929 476.78 755.75C476.742 754.551 476.722 753.188 476.722 751.661V722.98H480.956V751.487C480.956 752.802 480.966 753.904 480.985 754.793C481.024 755.663 481.227 756.436 481.594 757.113C482.29 758.408 483.392 759.182 484.9 759.433C486.428 759.684 488.313 759.626 490.555 759.259V763ZM470.023 735.334V731.68H490.555V735.334H470.023ZM508.672 763.87C505.56 763.87 502.901 763.164 500.697 761.753C498.493 760.342 496.802 758.389 495.622 755.895C494.443 753.401 493.853 750.54 493.853 747.311C493.853 744.024 494.453 741.144 495.651 738.669C496.85 736.194 498.551 734.271 500.755 732.898C502.979 731.506 505.618 730.81 508.672 730.81C511.804 730.81 514.472 731.516 516.676 732.927C518.9 734.319 520.591 736.262 521.751 738.756C522.931 741.231 523.52 744.082 523.52 747.311C523.52 750.598 522.931 753.488 521.751 755.982C520.572 758.457 518.871 760.39 516.647 761.782C514.424 763.174 511.766 763.87 508.672 763.87ZM508.672 759.781C512.152 759.781 514.743 758.631 516.444 756.33C518.146 754.01 518.996 751.004 518.996 747.311C518.996 743.522 518.136 740.506 516.415 738.263C514.714 736.02 512.133 734.899 508.672 734.899C506.333 734.899 504.4 735.431 502.872 736.494C501.364 737.538 500.233 738.998 499.479 740.873C498.745 742.729 498.377 744.875 498.377 747.311C498.377 751.081 499.247 754.107 500.987 756.388C502.727 758.65 505.289 759.781 508.672 759.781ZM570.749 763L570.778 742.439C570.778 740.022 570.102 738.128 568.748 736.755C567.414 735.363 565.713 734.667 563.644 734.667C562.465 734.667 561.315 734.938 560.193 735.479C559.072 736.02 558.144 736.89 557.409 738.089C556.694 739.288 556.336 740.854 556.336 742.787L553.813 742.062C553.755 739.819 554.19 737.857 555.118 736.175C556.066 734.493 557.361 733.188 559.004 732.26C560.667 731.313 562.542 730.839 564.63 730.839C567.782 730.839 570.305 731.815 572.199 733.768C574.094 735.701 575.041 738.321 575.041 741.627L575.012 763H570.749ZM533.368 763V731.68H537.196V739.394H537.66V763H533.368ZM552.102 763L552.131 742.729C552.131 740.235 551.464 738.273 550.13 736.842C548.816 735.392 547.076 734.667 544.91 734.667C542.745 734.667 540.995 735.411 539.661 736.9C538.327 738.369 537.66 740.332 537.66 742.787L535.108 741.395C535.108 739.384 535.582 737.586 536.529 736.001C537.477 734.396 538.772 733.14 540.415 732.231C542.059 731.303 543.924 730.839 546.012 730.839C548.004 730.839 549.773 731.264 551.319 732.115C552.885 732.966 554.113 734.203 555.002 735.827C555.892 737.451 556.336 739.423 556.336 741.743L556.307 763H552.102ZM591.522 763.87C589.164 763.87 587.182 763.445 585.577 762.594C583.992 761.743 582.803 760.612 582.01 759.201C581.218 757.79 580.821 756.253 580.821 754.59C580.821 752.889 581.16 751.439 581.836 750.24C582.532 749.022 583.47 748.026 584.649 747.253C585.848 746.48 587.23 745.89 588.796 745.484C590.382 745.097 592.131 744.759 594.045 744.469C595.979 744.16 597.864 743.899 599.7 743.686C601.556 743.454 603.18 743.232 604.572 743.019L603.064 743.947C603.122 740.854 602.523 738.563 601.266 737.074C600.01 735.585 597.825 734.841 594.712 734.841C592.566 734.841 590.749 735.324 589.26 736.291C587.791 737.258 586.757 738.785 586.157 740.873L582.01 739.655C582.726 736.852 584.166 734.677 586.331 733.13C588.497 731.583 591.31 730.81 594.77 730.81C597.632 730.81 600.058 731.351 602.049 732.434C604.06 733.497 605.481 735.044 606.312 737.074C606.699 737.983 606.95 738.998 607.066 740.119C607.182 741.24 607.24 742.381 607.24 743.541V763H603.441V755.141L604.543 755.605C603.48 758.292 601.827 760.342 599.584 761.753C597.342 763.164 594.654 763.87 591.522 763.87ZM592.015 760.187C594.007 760.187 595.747 759.829 597.235 759.114C598.724 758.399 599.923 757.422 600.831 756.185C601.74 754.928 602.33 753.517 602.6 751.951C602.832 750.946 602.958 749.844 602.977 748.645C602.997 747.427 603.006 746.518 603.006 745.919L604.63 746.76C603.18 746.953 601.605 747.147 599.903 747.34C598.221 747.533 596.559 747.756 594.915 748.007C593.291 748.258 591.822 748.558 590.507 748.906C589.618 749.157 588.758 749.515 587.926 749.979C587.095 750.424 586.409 751.023 585.867 751.777C585.345 752.531 585.084 753.469 585.084 754.59C585.084 755.499 585.307 756.378 585.751 757.229C586.215 758.08 586.95 758.785 587.955 759.346C588.98 759.907 590.333 760.187 592.015 760.187ZM631.842 763C630.083 763.367 628.343 763.512 626.622 763.435C624.921 763.358 623.393 762.99 622.04 762.333C620.706 761.676 619.691 760.651 618.995 759.259C618.434 758.099 618.125 756.929 618.067 755.75C618.028 754.551 618.009 753.188 618.009 751.661V722.98H622.243V751.487C622.243 752.802 622.253 753.904 622.272 754.793C622.311 755.663 622.514 756.436 622.881 757.113C623.577 758.408 624.679 759.182 626.187 759.433C627.714 759.684 629.599 759.626 631.842 759.259V763ZM611.31 735.334V731.68H631.842V735.334H611.31ZM638.593 725.735V720.95H642.856V725.735H638.593ZM638.593 763V731.68H642.856V763H638.593ZM664.629 763.87C661.516 763.87 658.858 763.164 656.654 761.753C654.45 760.342 652.758 758.389 651.579 755.895C650.399 753.401 649.81 750.54 649.81 747.311C649.81 744.024 650.409 741.144 651.608 738.669C652.806 736.194 654.508 734.271 656.712 732.898C658.935 731.506 661.574 730.81 664.629 730.81C667.761 730.81 670.429 731.516 672.633 732.927C674.856 734.319 676.548 736.262 677.708 738.756C678.887 741.231 679.477 744.082 679.477 747.311C679.477 750.598 678.887 753.488 677.708 755.982C676.528 758.457 674.827 760.39 672.604 761.782C670.38 763.174 667.722 763.87 664.629 763.87ZM664.629 759.781C668.109 759.781 670.699 758.631 672.401 756.33C674.102 754.01 674.953 751.004 674.953 747.311C674.953 743.522 674.092 740.506 672.372 738.263C670.67 736.02 668.089 734.899 664.629 734.899C662.289 734.899 660.356 735.431 658.829 736.494C657.321 737.538 656.19 738.998 655.436 740.873C654.701 742.729 654.334 744.875 654.334 747.311C654.334 751.081 655.204 754.107 656.944 756.388C658.684 758.65 661.245 759.781 664.629 759.781ZM708.494 763V747.021C708.494 745.281 708.33 743.686 708.001 742.236C707.672 740.767 707.141 739.491 706.406 738.408C705.691 737.306 704.753 736.455 703.593 735.856C702.452 735.257 701.06 734.957 699.417 734.957C697.909 734.957 696.575 735.218 695.415 735.74C694.274 736.262 693.308 737.016 692.515 738.002C691.742 738.969 691.152 740.148 690.746 741.54C690.34 742.932 690.137 744.517 690.137 746.296L687.121 745.629C687.121 742.42 687.682 739.723 688.803 737.538C689.924 735.353 691.471 733.7 693.443 732.579C695.415 731.458 697.677 730.897 700.229 730.897C702.104 730.897 703.738 731.187 705.13 731.767C706.541 732.347 707.73 733.13 708.697 734.116C709.683 735.102 710.476 736.233 711.075 737.509C711.674 738.766 712.109 740.109 712.38 741.54C712.651 742.951 712.786 744.363 712.786 745.774V763H708.494ZM685.845 763V731.68H689.702V739.394H690.137V763H685.845Z" fill="#555555"/>
</g>
<g filter="url(#filter0_d_20_27)">
<path d="M28.63 690V611.52H59.6405C60.4035 611.52 61.3118 611.556 62.3655 611.629C63.4192 611.665 64.4365 611.774 65.4175 611.956C69.6685 612.61 73.2292 614.063 76.0995 616.316C79.0062 618.569 81.1862 621.421 82.6395 624.872C84.0928 628.288 84.8195 632.085 84.8195 636.263C84.8195 642.331 83.239 647.599 80.078 652.068C76.917 656.501 72.2845 659.28 66.1805 660.406L62.4745 661.006H38.331V690H28.63ZM75.3365 690L59.8585 658.063L69.4505 655.12L86.4545 690H75.3365ZM38.331 651.795H59.3135C60.0038 651.795 60.785 651.759 61.657 651.686C62.5653 651.614 63.4192 651.487 64.2185 651.305C66.7255 650.724 68.7602 649.67 70.3225 648.144C71.9212 646.582 73.0838 644.765 73.8105 642.694C74.5372 640.587 74.9005 638.443 74.9005 636.263C74.9005 634.083 74.5372 631.957 73.8105 629.886C73.0838 627.779 71.9212 625.944 70.3225 624.382C68.7602 622.82 66.7255 621.766 64.2185 621.221C63.4192 621.003 62.5653 620.876 61.657 620.839C60.785 620.767 60.0038 620.73 59.3135 620.73H38.331V651.795ZM123.528 691.635C117.678 691.635 112.628 690.309 108.377 687.656C104.162 685.004 100.911 681.334 98.6216 676.647C96.3326 671.96 95.1881 666.583 95.1881 660.515C95.1881 654.339 96.3508 648.925 98.6761 644.274C101.001 639.624 104.29 636.009 108.541 633.429C112.792 630.813 117.787 629.505 123.528 629.505C129.414 629.505 134.483 630.831 138.734 633.483C142.985 636.099 146.236 639.751 148.489 644.438C150.778 649.089 151.923 654.448 151.923 660.515C151.923 666.656 150.778 672.069 148.489 676.756C146.2 681.407 142.93 685.059 138.679 687.711C134.428 690.327 129.378 691.635 123.528 691.635ZM123.528 682.424C129.632 682.424 134.174 680.39 137.153 676.32C140.132 672.251 141.622 666.983 141.622 660.515C141.622 653.866 140.114 648.58 137.099 644.656C134.083 640.696 129.559 638.715 123.528 638.715C119.422 638.715 116.043 639.642 113.391 641.495C110.739 643.348 108.759 645.909 107.451 649.179C106.143 652.449 105.489 656.228 105.489 660.515C105.489 667.128 107.015 672.433 110.067 676.429C113.119 680.426 117.606 682.424 123.528 682.424ZM188.992 691.635C183.142 691.635 178.092 690.309 173.841 687.656C169.626 685.004 166.374 681.334 164.085 676.647C161.796 671.96 160.652 666.583 160.652 660.515C160.652 654.339 161.815 648.925 164.14 644.274C166.465 639.624 169.753 636.009 174.004 633.429C178.255 630.813 183.251 629.505 188.992 629.505C194.878 629.505 199.946 630.831 204.197 633.483C208.448 636.099 211.7 639.751 213.953 644.438C216.242 649.089 217.386 654.448 217.386 660.515C217.386 666.656 216.242 672.069 213.953 676.756C211.664 681.407 208.394 685.059 204.143 687.711C199.892 690.327 194.842 691.635 188.992 691.635ZM188.992 682.424C195.096 682.424 199.638 680.39 202.617 676.32C205.596 672.251 207.086 666.983 207.086 660.515C207.086 653.866 205.578 648.58 202.562 644.656C199.547 640.696 195.023 638.715 188.992 638.715C184.886 638.715 181.507 639.642 178.855 641.495C176.203 643.348 174.222 645.909 172.914 649.179C171.606 652.449 170.952 656.228 170.952 660.515C170.952 667.128 172.478 672.433 175.53 676.429C178.582 680.426 183.07 682.424 188.992 682.424ZM229.331 690L229.386 611.52H239.196V659.48L263.884 631.14H276.474L250.477 660.57L279.526 690H265.955L239.196 661.66V690H229.331ZM306.122 691.581C299.11 691.581 293.351 690.054 288.845 687.002C284.376 683.914 281.633 679.609 280.616 674.086L290.535 672.505C291.334 675.703 293.169 678.246 296.039 680.135C298.91 681.988 302.47 682.915 306.721 682.915C310.754 682.915 313.915 682.079 316.204 680.408C318.493 678.737 319.638 676.466 319.638 673.595C319.638 671.924 319.256 670.58 318.493 669.562C317.73 668.509 316.15 667.528 313.752 666.619C311.39 665.711 307.811 664.621 303.015 663.349C297.82 661.969 293.732 660.534 290.753 659.044C287.774 657.554 285.648 655.828 284.376 653.866C283.105 651.904 282.469 649.525 282.469 646.727C282.469 643.275 283.414 640.26 285.303 637.68C287.192 635.064 289.826 633.047 293.205 631.63C296.621 630.213 300.581 629.505 305.086 629.505C309.555 629.505 313.552 630.213 317.076 631.63C320.601 633.047 323.435 635.064 325.578 637.68C327.758 640.26 329.048 643.275 329.448 646.727L319.529 648.525C319.057 645.364 317.531 642.876 314.951 641.059C312.408 639.242 309.119 638.279 305.086 638.17C301.271 638.025 298.165 638.697 295.767 640.187C293.405 641.677 292.224 643.693 292.224 646.236C292.224 647.653 292.66 648.871 293.532 649.888C294.441 650.905 296.094 651.868 298.492 652.776C300.926 653.685 304.451 654.72 309.065 655.883C314.261 657.191 318.348 658.626 321.327 660.188C324.343 661.714 326.487 663.531 327.758 665.638C329.03 667.709 329.666 670.271 329.666 673.323C329.666 678.991 327.577 683.46 323.398 686.73C319.22 689.964 313.461 691.581 306.122 691.581ZM389.013 691.635C384.653 691.635 380.584 690.999 376.805 689.727C373.026 688.456 369.865 686.457 367.322 683.732C365.36 681.552 363.888 679.154 362.907 676.538C361.963 673.886 361.436 671.088 361.327 668.145C361.327 665.275 361.745 662.477 362.58 659.752C363.416 656.991 364.742 654.539 366.559 652.395C367.504 651.232 368.557 650.251 369.72 649.452C370.919 648.616 372.118 647.908 373.317 647.326C370.81 644.638 368.884 642.113 367.54 639.751C366.232 637.389 365.578 634.537 365.578 631.195C365.578 626.943 366.668 623.11 368.848 619.695C371.064 616.243 374.08 613.718 377.895 612.119C379.748 611.32 381.637 610.775 383.563 610.484C385.525 610.157 387.432 609.994 389.285 609.994C392.41 609.994 395.444 610.43 398.387 611.302C401.33 612.174 403.837 613.591 405.908 615.553C407.289 616.716 408.469 618.06 409.45 619.586C410.431 621.076 411.194 622.638 411.739 624.273L402.256 626.725C401.566 624.872 400.422 623.31 398.823 622.038C397.551 620.948 396.062 620.204 394.354 619.804C392.683 619.404 390.993 619.204 389.285 619.204C386.451 619.204 383.89 619.749 381.601 620.839C379.566 621.82 378.04 623.201 377.023 624.981C376.006 626.725 375.497 628.796 375.497 631.195C375.497 633.265 375.842 634.973 376.532 636.317C377.259 637.625 378.258 639.024 379.53 640.514C380.293 641.313 381.147 642.167 382.091 643.075C383.072 643.947 384.072 644.856 385.089 645.8L408.197 667.273C408.306 666.365 408.379 665.439 408.415 664.494C408.451 663.549 408.469 662.641 408.469 661.769L408.415 650.923H417.298V663.676C417.298 666.256 417.208 668.454 417.026 670.271C416.881 672.088 416.626 673.595 416.263 674.794L426.236 684.005L419.914 690.763L411.63 682.915C410.213 684.514 408.524 685.912 406.562 687.111C404.6 688.31 402.638 689.219 400.676 689.836C398.823 690.527 396.915 690.999 394.953 691.254C392.991 691.508 391.011 691.635 389.013 691.635ZM389.231 682.315C391.011 682.315 392.628 682.206 394.081 681.989C395.535 681.77 396.915 681.353 398.223 680.735C399.967 679.899 401.312 679.1 402.256 678.337C403.201 677.574 403.982 676.865 404.6 676.211L380.674 654.302C379.366 654.738 378.131 655.32 376.968 656.046C375.842 656.773 374.861 657.627 374.025 658.608C373.081 659.771 372.372 661.133 371.9 662.695C371.464 664.258 371.246 665.911 371.246 667.655C371.282 669.508 371.591 671.216 372.172 672.778C372.754 674.34 373.571 675.739 374.625 676.974C376.224 678.827 378.385 680.19 381.11 681.062C383.835 681.898 386.542 682.315 389.231 682.315ZM489.23 691.635C481.418 691.635 474.787 689.909 469.337 686.457C463.887 683.006 459.727 678.21 456.857 672.069C454.023 665.929 452.606 658.826 452.606 650.76C452.606 642.694 454.023 635.591 456.857 629.45C459.727 623.31 463.887 618.514 469.337 615.062C474.787 611.611 481.418 609.885 489.23 609.885C498.313 609.885 505.78 612.192 511.629 616.806C517.515 621.421 521.567 627.634 523.783 635.445L513.918 638.061C512.32 632.212 509.468 627.597 505.362 624.218C501.256 620.839 495.879 619.15 489.23 619.15C483.38 619.15 478.512 620.476 474.624 623.128C470.736 625.781 467.811 629.487 465.849 634.246C463.887 638.97 462.888 644.474 462.852 650.76C462.816 657.009 463.778 662.514 465.74 667.273C467.702 671.997 470.645 675.703 474.569 678.391C478.493 681.044 483.38 682.37 489.23 682.37C495.879 682.37 501.256 680.68 505.362 677.301C509.468 673.886 512.32 669.272 513.918 663.458L523.783 666.074C521.567 673.85 517.515 680.063 511.629 684.713C505.78 689.328 498.313 691.635 489.23 691.635ZM552.467 691.635C548.071 691.635 544.383 690.836 541.403 689.237C538.46 687.602 536.226 685.458 534.7 682.806C533.21 680.154 532.465 677.247 532.465 674.086C532.465 670.998 533.047 668.327 534.209 666.074C535.408 663.785 537.08 661.896 539.223 660.406C541.367 658.88 543.929 657.681 546.908 656.809C549.706 656.046 552.83 655.392 556.282 654.847C559.77 654.266 563.294 653.739 566.855 653.267C570.416 652.795 573.74 652.34 576.828 651.904L573.34 653.921C573.449 648.689 572.396 644.819 570.179 642.312C567.999 639.805 564.221 638.552 558.843 638.552C555.283 638.552 552.158 639.369 549.469 641.004C546.817 642.603 544.946 645.219 543.856 648.852L534.645 646.073C536.062 640.914 538.806 636.862 542.875 633.919C546.944 630.976 552.303 629.505 558.952 629.505C564.293 629.505 568.871 630.468 572.686 632.393C576.538 634.283 579.299 637.153 580.97 641.004C581.806 642.821 582.333 644.801 582.551 646.945C582.769 649.052 582.878 651.269 582.878 653.594V690H574.267V675.884L576.283 677.192C574.067 681.952 570.961 685.549 566.964 687.983C563.004 690.418 558.171 691.635 552.467 691.635ZM553.938 683.514C557.426 683.514 560.442 682.897 562.985 681.661C565.565 680.39 567.636 678.737 569.198 676.702C570.761 674.631 571.778 672.378 572.25 669.944C572.795 668.127 573.086 666.111 573.122 663.894C573.195 661.642 573.231 659.916 573.231 658.717L576.61 660.188C573.449 660.624 570.343 661.042 567.291 661.442C564.239 661.842 561.35 662.278 558.625 662.75C555.9 663.186 553.448 663.713 551.268 664.33C549.669 664.839 548.161 665.493 546.744 666.292C545.364 667.092 544.237 668.127 543.365 669.399C542.53 670.634 542.112 672.178 542.112 674.031C542.112 675.63 542.512 677.156 543.311 678.609C544.147 680.063 545.418 681.244 547.126 682.152C548.87 683.06 551.141 683.514 553.938 683.514ZM619.284 691.581C612.272 691.581 606.513 690.054 602.007 687.002C597.538 683.914 594.795 679.609 593.778 674.086L603.697 672.505C604.496 675.703 606.331 678.246 609.201 680.135C612.072 681.988 615.632 682.915 619.883 682.915C623.916 682.915 627.077 682.079 629.366 680.408C631.655 678.737 632.8 676.466 632.8 673.595C632.8 671.924 632.418 670.58 631.655 669.562C630.892 668.509 629.312 667.528 626.914 666.619C624.552 665.711 620.973 664.621 616.177 663.349C610.982 661.969 606.894 660.534 603.915 659.044C600.936 657.554 598.81 655.828 597.538 653.866C596.267 651.904 595.631 649.525 595.631 646.727C595.631 643.275 596.576 640.26 598.465 637.68C600.354 635.064 602.988 633.047 606.367 631.63C609.783 630.213 613.743 629.505 618.248 629.505C622.717 629.505 626.714 630.213 630.238 631.63C633.763 633.047 636.597 635.064 638.74 637.68C640.92 640.26 642.21 643.275 642.61 646.727L632.691 648.525C632.219 645.364 630.693 642.876 628.113 641.059C625.57 639.242 622.281 638.279 618.248 638.17C614.433 638.025 611.327 638.697 608.929 640.187C606.567 641.677 605.386 643.693 605.386 646.236C605.386 647.653 605.822 648.871 606.694 649.888C607.603 650.905 609.256 651.868 611.654 652.776C614.088 653.685 617.613 654.72 622.227 655.883C627.423 657.191 631.51 658.626 634.489 660.188C637.505 661.714 639.649 663.531 640.92 665.638C642.192 667.709 642.828 670.271 642.828 673.323C642.828 678.991 640.739 683.46 636.56 686.73C632.382 689.964 626.623 691.581 619.284 691.581ZM687.711 690C684.223 690.69 680.772 690.963 677.356 690.818C673.977 690.709 670.962 690.036 668.309 688.801C665.657 687.529 663.64 685.567 662.26 682.915C661.097 680.59 660.461 678.246 660.352 675.884C660.28 673.486 660.243 670.78 660.243 667.764V614.79H669.944V667.328C669.944 669.726 669.962 671.779 669.999 673.486C670.071 675.194 670.453 676.666 671.143 677.901C672.451 680.226 674.522 681.589 677.356 681.989C680.227 682.388 683.678 682.279 687.711 681.661V690ZM648.308 639.151V631.14H687.711V639.151H648.308ZM700.751 690V609.885H710.452V690H700.751ZM752.311 691.635C746.534 691.635 741.483 690.363 737.16 687.82C732.872 685.24 729.53 681.661 727.132 677.083C724.734 672.469 723.535 667.092 723.535 660.951C723.535 654.52 724.716 648.961 727.077 644.274C729.439 639.551 732.727 635.918 736.942 633.374C741.193 630.795 746.17 629.505 751.875 629.505C757.797 629.505 762.829 630.867 766.971 633.592C771.15 636.317 774.274 640.205 776.345 645.255C778.453 650.306 779.361 656.319 779.07 663.295H769.26V659.807C769.151 652.577 767.68 647.181 764.846 643.62C762.012 640.023 757.797 638.225 752.202 638.225C746.207 638.225 741.647 640.151 738.522 644.002C735.398 647.853 733.835 653.376 733.835 660.57C733.835 667.51 735.398 672.887 738.522 676.702C741.647 680.517 746.098 682.424 751.875 682.424C755.762 682.424 759.141 681.534 762.012 679.754C764.882 677.974 767.135 675.412 768.77 672.069L778.089 675.285C775.8 680.481 772.349 684.514 767.734 687.384C763.156 690.218 758.015 691.635 752.311 691.635ZM730.565 663.295V655.501H774.056V663.295H730.565Z" fill="#111111" fill-opacity="0.92" shape-rendering="crispEdges"/>
</g>
<path d="M603.862 0.42766C629.12 -1.16575 670.526 1.82186 698.467 7.25383C732.96 13.9603 778.187 31.2621 799.229 45.8007C806.445 50.7864 806.445 50.7865 806.73 138.054C807.016 225.321 807.016 225.321 733.745 225.321C660.475 225.321 660.474 225.321 660.452 197.902C660.42 158.089 658.263 146.105 649.289 135.914C641.847 127.462 635.201 125.102 618.848 125.102C605.597 125.102 603.91 125.372 598.217 128.405C587.16 134.294 581.345 143.097 578.476 158.292C576.553 168.479 576.799 392.251 578.744 402.436C582.876 424.07 594.235 434.44 615.046 435.577C631.951 436.502 642.118 432.889 649.805 423.226C658.698 412.047 660.475 401.361 660.475 359.018C660.475 328.691 660.475 328.691 733.737 328.691C807 328.691 807 328.691 807 418.716C807 508.74 807 508.74 799.277 513.797C775.182 529.573 735.196 545.145 700.437 552.289C673.343 557.857 662.933 558.753 625.508 558.738C593.982 558.726 588.052 558.393 572.781 555.781C441.931 533.398 381.669 440.434 385.533 266.921C386.904 205.316 395.664 160.247 414.198 119.43C447.66 45.7419 510.493 6.31853 603.862 0.42766ZM0 60.7392C0 3.30825 0.000329763 3.30847 154.019 3.81145C314.304 4.3346 312.352 4.27043 337.452 9.91789C370.387 17.3303 397.964 33.7193 414.512 55.7157C419.849 62.8103 419.849 62.8106 414.878 70.0048C386.823 110.608 369.987 164.243 363.948 232.254C362.202 251.919 362.189 310.14 363.926 328.691C371.45 409.029 391.383 465.183 426.811 505.848C437.115 517.676 456.703 535.56 464.132 539.922C465.889 540.954 467.327 542.352 467.327 543.027C467.327 543.815 432.521 544.256 370.245 544.256C273.164 544.256 273.165 544.255 272.812 451.285C272.484 365.12 272.31 357.807 270.423 351.382C263.244 326.927 251.098 319.462 213.961 316.679C202.028 315.784 202.027 315.783 202.027 372.662C202.027 427.762 202.027 429.484 220.192 429.538L223.823 429.542C241.989 429.596 241.989 431.332 241.989 486.897C241.989 544.255 241.989 544.256 120.994 544.256C2.6039e-07 544.256 0 544.255 0 486.897C0 429.54 1.95981e-05 429.54 14.9854 429.54C29.9709 429.54 29.9707 429.54 29.9707 273.854C29.9707 118.169 29.9709 118.169 14.9854 118.169C1.04102e-05 118.169 0 118.168 0 60.7392ZM225.061 118.393C202.028 117.986 202.027 117.986 202.027 174.9C202.027 231.813 202.028 231.813 223.951 231.403C248.279 230.948 252.895 229.674 260.509 221.309C268.3 212.746 269.185 208.014 269.185 174.896C269.185 145.563 269.156 145.202 266.274 138.224C263.029 130.363 259.138 125.642 252.534 121.55C248.448 119.019 246.258 118.767 225.061 118.393Z" fill="#C1FF72"/>
<defs>
<filter id="filter0_d_20_27" x="24.63" y="609.885" width="758.876" height="89.75" filterUnits="userSpaceOnUse" color-interpolation-filters="sRGB">
<feFlood flood-opacity="0" result="BackgroundImageFix"/>
<feColorMatrix in="SourceAlpha" type="matrix" values="0 0 0 0 0 0 0 0 0 0 0 0 0 0 0 0 0 0 127 0" result="hardAlpha"/>
<feOffset dy="4"/>
<feGaussianBlur stdDeviation="2"/>
<feComposite in2="hardAlpha" operator="out"/>
<feColorMatrix type="matrix" values="0 0 0 0 0.1016 0 0 0 0 0.0951108 0 0 0 0 0.0951108 0 0 0 0.25 0"/>
<feBlend mode="normal" in2="BackgroundImageFix" result="effect1_dropShadow_20_27"/>
<feBlend mode="normal" in="SourceGraphic" in2="effect1_dropShadow_20_27" result="shape"/>
</filter>
</defs>
</svg>
