<svg xmlns="http://www.w3.org/2000/svg" viewBox="0 0 807 559" fill="none">
  <path
    fill="#1FF1A7"
    d="M603.862.428c25.258-1.594 66.6641.394 94.6051 5.826 34.493 6.707 79.72 24.009 100.761 38.547 7.216 4.986 7.216 4.986 7.501 92.254.286 87.267.286 87.267-73.0 87.267-73.27 0-73.271 0-73.293-27.419-.032-39.813-2.189-51.797-11.163-61.988-7.442-8.452-14.088-10.812-30.441-10.812-13.251 0-14.938.27-20.631 3.303-11.057 5.889-16.872 14.692-19.741 29.887-1.923 10.187-1.677 233.959.268 244.144 4.132 21.634 15.491 32.004 36.302 33.141 16.905.924 27.072-2.689 34.759-12.352 8.893-11.179 10.67-21.865 10.67-64.208 0-30.327 0-30.327 73.262-30.327S807 319.692 807 409.716c0 90.025 0 90.025-7.723 95.082-24.095 15.776-64.081 31.348-98.84 38.492-27.094 5.568-37.504 6.464-74.929 6.449-31.526-.012-37.456-.345-52.727-2.957-130.85-22.383-191.112-115.347-187.248-288.86 1.371-61.605 10.131-106.674 28.665-147.491C447.66 45.742 510.493 6.319 603.862.428ZM0 60.739C0 3.308.00033 3.308 154.019 3.811c160.285.523 158.333.459 183.433 6.107 32.935 7.412 60.512 23.801 77.06 45.798 5.337 7.095 5.337 7.095.366 14.289-28.055 40.603-44.891 94.238-50.93 162.249-1.746 19.665-1.759 77.886-.022 96.437 7.524 80.338 27.457 136.492 62.885 177.157 10.304 11.828 29.892 29.712 37.321 34.074 1.757 1.032 3.195 2.43 3.195 3.105 0 .788-34.806 1.229-97.082 1.229-97.081 0-97.08 0-97.433-92.97-.328-86.166-.502-93.479-2.389-99.904-7.179-24.455-19.325-31.92-56.462-34.703-11.933-.895-11.934-.896-11.934 56.0 0 56.877 0 56.877 19.981 56.877s19.981 0 19.981 57.357c0 57.358 0 57.359-120.995 57.359S0 544.255 0 486.897s.00002-57.357 14.985-57.357c14.986 0 14.986 0 14.986-155.686 0-155.685 0-155.685-14.986-155.685C.00001 118.169 0 118.168 0 60.739Zm225.061 57.654c-23.033-.407-23.034-.407-23.034 56.507 0 56.913 0 56.913 21.924 56.503 24.328-.455 28.944-1.729 36.558-10.094 7.791-8.563 8.676-13.295 8.676-46.413 0-29.333-.029-29.694-2.911-36.672-3.245-7.861-7.136-12.582-13.74-16.674-4.086-2.531-6.276-2.783-27.473-3.157Z"
  />
</svg>
